<?xml version="1.0" encoding="utf-8"?>
<svg width="389.272px" height="409.7567px" viewBox="0 0 389.272 409.7567" version="1.1" xmlns:xlink="http://www.w3.org/1999/xlink" xmlns="http://www.w3.org/2000/svg">
  <g id="g909">
    <path d="M38.8642 213.142C42.7526 225.411 54.6757 249.441 52.3418 261.884C47.9399 285.356 14.707 280.498 0 274.507L0 270.416C27.0904 258.501 28.2767 236.68 38.8642 213.142M14.3182 249.961L12.2727 252.006L14.3182 249.961" id="path534" fill="#4C5897" fill-rule="evenodd" stroke="none" />
    <path d="M350.408 213.832C346.519 226.101 334.596 250.132 336.93 262.574C341.332 286.046 374.565 281.188 389.272 275.197L389.272 271.106C362.182 259.191 360.995 237.37 350.408 213.832M374.954 250.651L376.999 252.697L374.954 250.651" id="path534-3" fill="#4C5897" fill-rule="evenodd" stroke="none" />
    <path d="M241.636 191.745C240.935 191.794 241.952 206.083 241.963 215.837C241.978 228.296 243.527 235.228 232.443 266.54C230.961 270.728 229.999 274.696 228.541 278.116C224.455 287.697 216.283 310.476 215.465 321.028C215.399 321.856 213.278 333.082 215.426 348.829C217.599 364.767 223.214 374.756 234.558 391.97L244.262 403.54C242.924 391.202 235.326 380.878 232.473 368.767C226.725 344.36 224.815 326.017 232.553 304.1C237.7 292.75 236.541 295.907 242.381 283.435C245.611 276.535 249.242 269.354 251.344 262.018C252.762 256.852 263.708 215.785 241.709 191.786C241.682 191.756 241.659 191.743 241.637 191.745L241.636 191.745Z" id="path572" fill="#4C5897" stroke="none" />
    <path d="M187.689 385.132L217.672 385.132C192.279 317.009 238.125 256.304 238.125 188.765C294.41 200.121 243.744 292.082 237.256 323.435L237.053 326.229L247.127 307.487C251.389 300.227 248.074 305.55 253.826 296.149C255.743 292.444 256.477 290.952 259.385 284.71C268.301 265.569 281.85 222.516 283.127 194.901L285.172 194.901C285.172 213.742 285.6 231.856 280.183 250.13C270.167 283.929 252.032 311.703 252.453 348.314C252.754 374.451 264.547 405.181 293.353 409.677C262.229 353.494 297.782 316.329 323.508 266.493C350.346 214.499 368.672 149.507 345.904 92.6279C320.3 28.6743 253.375 -2.18469 187.689 0.120129L187.689 385.132Z" id="path803" fill="#4C5897" stroke="none" />
    <path d="M147.927 191.825C148.629 191.874 147.612 206.163 147.601 215.917C147.586 228.376 146.037 235.308 157.121 266.62C158.603 270.808 159.565 274.776 161.023 278.196C165.108 287.777 173.281 310.556 174.099 321.108C174.165 321.936 176.286 333.162 174.138 348.909C171.965 364.847 166.35 374.836 155.005 392.05L145.302 403.62C146.64 391.282 154.238 380.958 157.091 368.846C162.839 344.44 164.749 326.097 157.011 304.18C151.864 292.83 153.022 295.987 147.183 283.514C143.953 276.615 140.322 269.434 138.22 262.098C136.801 256.932 125.856 215.865 147.855 191.866C147.881 191.836 147.904 191.823 147.927 191.825L147.927 191.825Z" id="path572-7" fill="#4C5897" stroke="none" />
    <path d="M201.875 385.212L171.892 385.212C197.285 317.089 151.439 256.384 151.439 188.845C95.1537 200.201 145.82 292.161 152.308 323.514L152.511 326.309L142.437 307.567C138.175 300.307 141.49 305.63 135.738 296.229C133.821 292.524 133.087 291.032 130.179 284.79C121.263 265.649 107.714 222.596 106.437 194.981L104.392 194.981C104.392 213.822 103.964 231.935 109.38 250.21C119.397 284.009 137.532 311.783 137.111 348.393C136.81 374.531 125.017 405.261 96.2105 409.757C127.335 353.573 91.7822 316.409 66.0562 266.573C39.2175 214.579 20.8915 149.587 43.6597 92.7078C69.2634 28.7542 136.188 -2.10476 201.875 0.200061L201.875 385.212Z" id="path803-5" fill="#4C5897" stroke="none" />
    <path d="M167.909 161.04L176.091 177.403C191.659 172.791 208.37 180.629 217 163.085C197.317 167.575 187.331 168.98 167.909 161.04" id="path562" fill="#FFFFFF" stroke="none" />
    <path d="M114.007 90.4503C73.1769 101.692 93.5295 165.456 134.462 153.105C175.619 140.687 155.078 79.1408 114.007 90.4503M128.098 107.423L136.28 121.741L126.052 136.06L107.643 134.014C109.079 120.784 116.117 112.737 128.098 107.423M126.28 117.923L124.234 119.969L126.28 117.923" id="path527" fill="#FFFFFF" fill-rule="evenodd" stroke="none" />
    <path d="M271.562 88.5487C312.392 99.7906 292.039 163.554 251.107 151.204C209.95 138.786 230.491 77.2391 271.562 88.5487M257.471 105.521L249.289 119.84L259.517 134.158L277.926 132.112C276.49 118.882 269.452 110.835 257.471 105.521M259.289 116.022L261.335 118.067L259.289 116.022" id="path527-3" fill="#FFFFFF" fill-rule="evenodd" stroke="none" />
  </g>
</svg>